<svg width="24" height="19" viewBox="0 0 24 19" fill="none" xmlns="http://www.w3.org/2000/svg">
<path d="M15.2386 19H15.0457C12.731 19 10.4162 19 8.10152 19C7.81218 19 7.61929 18.9035 7.52284 18.7107C5.11167 15.6244 2.60406 12.6345 0.192893 9.54822C0.0964465 9.35533 0 9.25888 0 9.06599C0 6.07614 0 3.18274 0 0.192893C0 0.0964465 -9.34159e-08 0 0.0964466 0H0.192893C5.20812 6.26903 10.2233 12.5381 15.1421 18.8071C15.1421 18.8071 15.1421 18.9035 15.2386 18.9035V19Z" fill="#FF4655"/>
<path d="M22.9543 9.54822C22.2792 10.4162 21.5076 11.2843 20.8325 12.2487C20.6396 12.4416 20.4467 12.5381 20.2538 12.5381C17.9391 12.5381 15.6243 12.5381 13.4061 12.5381H13.3096C13.2132 12.5381 13.1167 12.4416 13.2132 12.3452C13.2132 12.3452 13.2132 12.2487 13.3096 12.2487C15.6243 9.35533 17.8426 6.55837 20.1573 3.66497C21.1218 2.50761 22.0863 1.25381 22.9543 0.0964466C22.9543 -9.34159e-08 23.0507 0 23.1472 0H23.2436C23.2436 0.0964467 23.2436 0.0964465 23.2436 0.192893C23.2436 3.08629 23.2436 6.07614 23.2436 8.96954C23.1472 9.25888 23.0507 9.45177 22.9543 9.54822Z" fill="#FF4655"/>
</svg>
